<svg id="adobe-xd-seeklogo.com" xmlns="http://www.w3.org/2000/svg" width="147.941" height="144.243" viewBox="0 0 147.941 144.243">
  <path id="Path_141" data-name="Path 141" d="M26.2,0h95.546a26.176,26.176,0,0,1,26.2,26.2v91.847a26.176,26.176,0,0,1-26.2,26.2H26.2A26.176,26.176,0,0,1,0,118.045V26.2A26.176,26.176,0,0,1,26.2,0Z" fill="#470137"/>
  <g id="Group_55" data-name="Group 55" transform="translate(21.551 31.613)">
    <path id="Path_142" data-name="Path 142" d="M91.2,60.925,72.71,91.438,92.436,123.8a1.061,1.061,0,0,1,.123.74c-.062.247-.308.062-.678.123H77.765c-.986,0-1.664-.062-2.1-.678-1.294-2.589-2.651-5.116-3.945-7.705-1.294-2.527-2.712-5.116-4.192-7.767s-2.959-5.3-4.438-8.013h-.123c-1.294,2.651-2.712,5.3-4.13,7.952s-2.836,5.3-4.192,7.89c-1.418,2.589-2.836,5.24-4.253,7.767-.247.616-.74.678-1.418.678H35.416c-.247,0-.431.123-.431-.185a.856.856,0,0,1,.123-.678L54.279,92.485,35.6,60.863c-.185-.247-.247-.493-.123-.616A.715.715,0,0,1,36.095,60H50.087a3.638,3.638,0,0,1,.863.123,1.748,1.748,0,0,1,.616.555c1.171,2.651,2.527,5.3,3.945,7.952,1.479,2.651,2.9,5.24,4.438,7.829,1.479,2.589,2.836,5.178,4.13,7.829H64.2c1.294-2.712,2.651-5.363,4.007-7.952s2.774-5.178,4.192-7.767,2.774-5.24,4.13-7.767a1.048,1.048,0,0,1,.37-.616,1.175,1.175,0,0,1,.8-.123H90.71a.568.568,0,0,1,.678.431c.062.062-.062.308-.185.431Z" transform="translate(-34.961 -54.628)" fill="#ff61f6"/>
    <path id="Path_143" data-name="Path 143" d="M156.25,122.614A30.646,30.646,0,0,1,143,119.84a21.491,21.491,0,0,1-9.308-8.383c-2.281-3.76-3.39-8.445-3.39-14.054a25.317,25.317,0,0,1,3.39-13.007,25.6,25.6,0,0,1,9.8-9.555c4.315-2.4,9.493-3.575,15.6-3.575a11.009,11.009,0,0,1,1.294.062c.555.062,1.171.062,1.911.123V51.972c0-.431.185-.678.616-.678h12.513a.553.553,0,0,1,.616.431v58.807c0,1.11.062,2.342.123,3.7.123,1.294.185,2.527.247,3.575a1,1,0,0,1-.616.986,47.077,47.077,0,0,1-10.048,2.959A54.375,54.375,0,0,1,156.25,122.614Zm6.041-12.328V83.163a15.769,15.769,0,0,0-1.664-.308c-.678-.062-1.356-.123-2.034-.123a15.2,15.2,0,0,0-6.966,1.6,13.819,13.819,0,0,0-5.24,4.562,13.664,13.664,0,0,0-2.034,7.829,17.178,17.178,0,0,0,1.048,6.349,12.047,12.047,0,0,0,2.774,4.377,10.649,10.649,0,0,0,4.192,2.466,16.136,16.136,0,0,0,5.116.8c.925,0,1.788-.062,2.589-.123a5.391,5.391,0,0,0,2.219-.308Z" transform="translate(-71.529 -51.284)" fill="#ff61f6"/>
  </g>
</svg>
