<svg xmlns="http://www.w3.org/2000/svg" width="164.999" height="131.44" viewBox="0 0 164.999 131.44">
  <path id="bootstrap-5-1" d="M34.271,0C24.856,0,17.89,8.24,18.2,17.177c.3,8.585-.09,19.7-2.889,28.773C12.5,55.043,7.756,60.805,0,61.545V69.9c7.756.741,12.5,6.5,15.313,15.6,2.8,9.068,3.188,20.187,2.889,28.773-.312,8.935,6.654,17.177,16.071,17.177h96.469c9.415,0,16.38-8.24,16.068-17.177-.3-8.585.09-19.7,2.889-28.773,2.809-9.095,7.545-14.856,15.3-15.6v-8.35c-7.756-.741-12.492-6.5-15.3-15.6-2.8-9.067-3.188-20.187-2.889-28.773C147.12,8.242,140.155,0,130.741,0H34.27Zm77.593,80.91c0,12.305-9.178,19.768-24.41,19.768H61.525a2.8,2.8,0,0,1-2.8-2.8V33.559a2.8,2.8,0,0,1,2.8-2.8H87.306c12.7,0,21.036,6.88,21.036,17.442A15.619,15.619,0,0,1,95.591,63.418v.387c9.725,1.067,16.273,7.8,16.273,17.1ZM84.626,39.628H69.842V60.51H82.294c9.626,0,14.934-3.876,14.934-10.8C97.227,43.213,92.664,39.628,84.626,39.628ZM69.842,68.8V91.809H85.17c10.022,0,15.331-4.022,15.331-11.579S95.044,68.795,84.526,68.795H69.842Z" fill="#7952b3" fill-rule="evenodd"/>
</svg>
