<svg xmlns="http://www.w3.org/2000/svg" width="139.775" height="157.096" viewBox="0 0 139.775 157.096">
  <g id="c-logo-svgrepo-com" transform="translate(0 -0.268)">
    <path id="Path_146" data-name="Path 146" d="M139.768,46.454a13.872,13.872,0,0,0-1.708-6.979A13.345,13.345,0,0,0,133,34.549Q105.091,18.454,77.167,2.382c-5.015-2.9-9.877-2.79-14.855.147C54.905,6.9,17.823,28.142,6.773,34.543A12.906,12.906,0,0,0,.007,46.449Q0,78.815,0,111.182a13.933,13.933,0,0,0,1.634,6.845,13.3,13.3,0,0,0,5.133,5.061c11.05,6.4,48.137,27.644,55.542,32.013,4.98,2.938,9.842,3.043,14.859.147q27.9-16.111,55.84-32.166a13.3,13.3,0,0,0,5.133-5.06,13.951,13.951,0,0,0,1.634-6.846s0-43.144-.007-64.722" fill="#5c8dbc"/>
    <path id="Path_147" data-name="Path 147" d="M71.455,143.509,2.988,182.931a13.3,13.3,0,0,0,5.133,5.061c11.05,6.4,48.137,27.644,55.542,32.013,4.98,2.938,9.842,3.043,14.859.147q27.9-16.111,55.84-32.166a13.3,13.3,0,0,0,5.133-5.06l-68.04-39.417" transform="translate(-1.354 -64.904)" fill="#1a4674"/>
    <path id="Path_148" data-name="Path 148" d="M91.1,155.186a23.108,23.108,0,0,0,40.206-.134L111.38,143.509,91.1,155.186" transform="translate(-41.279 -64.904)" fill="#1a4674"/>
    <path id="Path_149" data-name="Path 149" d="M197.849,78.938a13.872,13.872,0,0,0-1.708-6.979l-67.958,39.13,68.04,39.417a13.951,13.951,0,0,0,1.634-6.846s0-43.144-.007-64.722" transform="translate(-58.08 -32.484)" fill="#1b598e"/>
    <path id="Path_150" data-name="Path 150" d="M219.439,139.851h-5.317v5.318H208.8v-5.318h-5.316v-5.316H208.8v-5.317h5.318v5.317h5.317v5.316m-19.4,0h-5.316v5.318H189.4v-5.318h-5.317v-5.316H189.4v-5.317h5.317v5.317h5.316v5.316" transform="translate(-83.412 -58.429)" fill="#fff"/>
    <path id="Path_151" data-name="Path 151" d="M109.474,116.769a23.113,23.113,0,1,1-.15-22.929l20.2-11.633a46.417,46.417,0,1,0,.12,46.251l-20.173-11.688" transform="translate(-19.446 -26.621)" fill="#fff"/>
  </g>
</svg>
