<svg id="github-icon-1-logo-svgrepo-com" xmlns="http://www.w3.org/2000/svg" width="162.296" height="158.29" viewBox="0 0 162.296 158.29">
  <path id="Path_144" data-name="Path 144" d="M81.148,0A81.157,81.157,0,0,0,55.494,158.15c4.055.751,5.545-1.76,5.545-3.9,0-1.935-.076-8.328-.11-15.108-22.576,4.909-27.34-9.574-27.34-9.574-3.691-9.38-9.01-11.873-9.01-11.873-7.362-5.037.555-4.934.555-4.934,8.149.573,12.44,8.363,12.44,8.363,7.237,12.406,18.983,8.819,23.614,6.746.728-5.245,2.831-8.825,5.152-10.851C48.316,114.962,29.368,108,29.368,76.91A31.4,31.4,0,0,1,37.73,55.129c-.843-2.044-3.62-10.3.786-21.475,0,0,6.814-2.181,22.322,8.318a76.98,76.98,0,0,1,40.64,0c15.489-10.5,22.294-8.318,22.294-8.318,4.417,11.178,1.638,19.431.8,21.475a31.343,31.343,0,0,1,8.351,21.781c0,31.167-18.983,38.031-37.053,40.039,2.91,2.518,5.5,7.457,5.5,15.027,0,10.858-.094,19.6-.094,22.269,0,2.159,1.461,4.69,5.575,3.893A81.16,81.16,0,0,0,81.148,0" fill="#161614"/>
  <path id="Path_145" data-name="Path 145" d="M46.513,180.848c-.178.4-.813.524-1.391.248s-.92-.815-.729-1.219c.175-.415.81-.531,1.4-.252s.926.819.722,1.224m3.992,3.561c-.387.359-1.144.192-1.657-.375a1.24,1.24,0,0,1-.237-1.687c.4-.358,1.133-.191,1.665.375s.634,1.324.229,1.687m2.739,4.556c-.5.346-1.311.022-1.813-.7s-.5-1.587.011-1.933,1.3-.035,1.814.681c.5.734.5,1.6-.012,1.953m4.631,5.277c-.445.49-1.392.359-2.086-.311a1.56,1.56,0,0,1-.461-2.073c.45-.491,1.4-.353,2.1.311s.92,1.589.446,2.073m5.984,1.782c-.2.635-1.108.924-2.027.654s-1.519-1.023-1.333-1.665,1.107-.941,2.033-.652,1.519,1.016,1.328,1.662m6.812.755c.023.67-.757,1.225-1.722,1.237s-1.755-.521-1.765-1.179c0-.676.762-1.226,1.732-1.242s1.755.519,1.755,1.184m6.691-.256c.116.653-.555,1.324-1.513,1.5-.942.172-1.814-.231-1.934-.878-.117-.67.566-1.34,1.506-1.513.96-.167,1.818.226,1.94.89" transform="translate(-16.121 -65.25)" fill="#161614"/>
</svg>
