<svg xmlns="http://www.w3.org/2000/svg" width="159.425" height="141.975" viewBox="0 0 159.425 141.975">
  <g id="react-2" transform="translate(-175.7 -78)">
    <path id="Path_129" data-name="Path 129" d="M335.125,149c0-10.561-13.226-20.57-33.5-26.777,4.679-20.667,2.6-37.11-6.564-42.375a14.247,14.247,0,0,0-7.279-1.82v7.247a7.525,7.525,0,0,1,3.7.845c4.419,2.535,6.337,12.186,4.842,24.6-.357,3.055-.942,6.272-1.657,9.554a157.48,157.48,0,0,0-20.635-3.542,158.512,158.512,0,0,0-13.518-16.248c10.594-9.846,20.537-15.241,27.3-15.241V78c-8.936,0-20.635,6.369-32.463,17.418C243.519,84.434,231.82,78.13,222.884,78.13v7.247c6.727,0,16.7,5.362,27.3,15.143a153.482,153.482,0,0,0-13.421,16.215,151.747,151.747,0,0,0-20.667,3.575c-.747-3.25-1.3-6.4-1.69-9.424-1.527-12.413.357-22.065,4.744-24.632a7.232,7.232,0,0,1,3.737-.845V78.162a14.489,14.489,0,0,0-7.344,1.82c-9.131,5.264-11.179,21.675-6.467,42.277C188.861,128.5,175.7,138.475,175.7,149c0,10.561,13.226,20.57,33.5,26.777-4.679,20.667-2.6,37.11,6.564,42.375a14.285,14.285,0,0,0,7.312,1.82c8.936,0,20.635-6.369,32.463-17.418,11.829,10.984,23.527,17.288,32.463,17.288a14.489,14.489,0,0,0,7.344-1.82c9.131-5.264,11.179-21.675,6.467-42.277,20.147-6.207,33.308-16.215,33.308-26.744Zm-42.31-21.675c-1.2,4.192-2.7,8.514-4.387,12.836-1.332-2.6-2.73-5.2-4.257-7.8-1.495-2.6-3.087-5.134-4.679-7.6C284.106,125.444,288.558,126.289,292.815,127.329Zm-14.883,34.608c-2.535,4.387-5.134,8.546-7.832,12.413-4.842.422-9.749.65-14.688.65-4.907,0-9.814-.227-14.623-.617q-4.046-5.8-7.864-12.348-3.7-6.385-6.759-12.933c2.015-4.354,4.289-8.709,6.727-12.966,2.535-4.387,5.134-8.546,7.832-12.413,4.842-.422,9.749-.65,14.688-.65,4.907,0,9.814.227,14.623.617q4.046,5.8,7.864,12.348,3.7,6.385,6.759,12.933c-2.047,4.354-4.289,8.709-6.727,12.966Zm10.5-4.224c1.755,4.354,3.25,8.709,4.484,12.933-4.257,1.04-8.741,1.917-13.388,2.6,1.592-2.5,3.185-5.069,4.679-7.7,1.495-2.6,2.892-5.232,4.224-7.832Zm-32.951,34.673a133.964,133.964,0,0,1-9.034-10.4c2.925.13,5.914.227,8.936.227,3.055,0,6.077-.065,9.034-.227A126.84,126.84,0,0,1,255.477,192.386ZM231.3,173.245c-4.614-.682-9.066-1.527-13.323-2.567,1.2-4.192,2.7-8.514,4.387-12.836,1.332,2.6,2.73,5.2,4.257,7.8S229.708,170.776,231.3,173.245Zm24.014-67.624a133.975,133.975,0,0,1,9.034,10.4c-2.925-.13-5.914-.227-8.936-.227-3.055,0-6.077.065-9.034.227A126.841,126.841,0,0,1,255.315,105.622Zm-24.047,19.14c-1.592,2.5-3.185,5.069-4.679,7.7-1.495,2.6-2.892,5.2-4.224,7.8-1.755-4.354-3.25-8.709-4.484-12.933,4.257-1.007,8.741-1.885,13.388-2.567Zm-29.409,40.685c-11.5-4.907-18.945-11.341-18.945-16.443s7.442-11.569,18.945-16.443c2.795-1.2,5.849-2.275,9-3.282a156.072,156.072,0,0,0,7.312,19.79,153.87,153.87,0,0,0-7.214,19.693c-3.217-1.007-6.272-2.112-9.1-3.315Zm17.483,46.437c-4.419-2.535-6.337-12.186-4.842-24.6.357-3.055.942-6.272,1.657-9.554a157.481,157.481,0,0,0,20.635,3.542,158.516,158.516,0,0,0,13.518,16.248c-10.594,9.846-20.537,15.241-27.3,15.241A7.755,7.755,0,0,1,219.342,211.883Zm77.08-24.762c1.527,12.413-.357,22.065-4.744,24.632a7.232,7.232,0,0,1-3.737.845c-6.727,0-16.7-5.362-27.3-15.143a153.491,153.491,0,0,0,13.421-16.215,151.749,151.749,0,0,0,20.667-3.575A90.985,90.985,0,0,1,296.422,187.121Zm12.511-21.675c-2.795,1.2-5.849,2.275-9,3.282a156.076,156.076,0,0,0-7.312-19.79,153.866,153.866,0,0,0,7.214-19.693c3.217,1.007,6.272,2.112,9.131,3.315,11.5,4.907,18.945,11.341,18.945,16.443C327.878,154.105,320.437,160.572,308.933,165.446Z" fill="#61dafb"/>
    <circle id="Ellipse_3" data-name="Ellipse 3" cx="14.851" cy="14.851" r="14.851" transform="translate(240.529 134.153)" fill="#61dafb"/>
  </g>
</svg>
